<?xml version="1.0" encoding="utf-8"?>
<!-- Generator: Adobe Illustrator 22.0.0, SVG Export Plug-In . SVG Version: 6.00 Build 0)  -->
<svg version="1.1" id="Layer_1" xmlns="http://www.w3.org/2000/svg" xmlns:xlink="http://www.w3.org/1999/xlink" x="0px" y="0px"
	 viewBox="0 0 500 500" style="enable-background:new 0 0 500 500;" xml:space="preserve">
<style type="text/css">
	.st0{opacity:0.15;}
	.st1{fill:#FFFFFF;stroke:#000000;stroke-width:15;stroke-miterlimit:10;}
	.st2{fill:#709490;stroke:#000000;stroke-width:15;stroke-miterlimit:10;}
	.st3{fill:#B1C5C3;stroke:#000000;stroke-width:15;stroke-miterlimit:10;}
	.st4{fill:#637B78;stroke:#000000;stroke-width:15;stroke-miterlimit:10;}
	.st5{fill:#778A86;stroke:#000000;stroke-width:15;stroke-miterlimit:10;}
	.st6{fill:#FFFFFF;}
	.st7{fill:#709490;}
	.st8{fill:#B1C5C3;}
	.st9{fill:#637B78;}
	.st10{fill:#778A86;}
</style>
<g class="st0">
	<path class="st1" d="M202.3,24.4c-36.4,16.5-19.2,93.6,22.9,77.1C261.4,87.3,247.5,3.9,202.3,24.4z"/>
	<path id="Batata_1_" onclick="document.getElementById('Batata').style.color = &quot;orange&quot;;" class="st1" d="M275.1,24.7
		c-32.8,17.4-15.2,97.7,26.1,75.4C333.5,82.6,319.1,1.3,275.1,24.7z"/>
	<path class="st1" d="M147,84.2c-26.6,17.5,11.2,75.8,40.9,56C215,122.2,174.4,66.1,147,84.2z"/>
	<path class="st1" d="M331.3,83.9c-30.5,13.7-30.8,75.4,9.8,55.4C369.5,125.2,369.2,66.9,331.3,83.9z"/>
	<path class="st2" d="M140.5,116.1l1.1,2.2L140.5,116.1z"/>
	<path class="st1" d="M245.2,118.7c-25.6,4.8-93.8,64.6-57.4,89.6c21.7,14.9,42.4-7.8,64-8.3c23.4-0.5,41.3,18.7,66.1,11.6
		c24.3-6.9,14.5-29.9,5.2-45C307,140.5,278.5,112.4,245.2,118.7z"/>
	<path class="st3" d="M280.5,124.9l2.2,1.1L280.5,124.9z"/>
	<path class="st4" d="M291.5,130.4l3.3,3.3L291.5,130.4z"/>
	<path class="st5" d="M354.3,457.8l3.3,3.3L354.3,457.8z"/>
	<path class="st1" d="M202.7,234.5c-19.5-17.1-49.5-18.4-73.7-12.8c-7.7,1.8-18.9,3.8-24.1,10.5c-4,5.1-1.5,18.6-1.5,24.9v56.2
		c0,7.3-1.9,17.9,2,24.4c7.6,12.9,28,12,40.6,9c3.9-0.9,10.2-2.3,12.7-5.7c2.4-3.3,0.9-11.3,0.9-15.2c-5.6-1-20.1-0.2-19.9-8.5
		c18.8,5.3,42.3,5.9,59-5.7C222.6,294.9,224.6,253.6,202.7,234.5z M157.9,281.4l-0.6-19.3C165.9,262.2,165.8,281.2,157.9,281.4z"/>
	<path class="st1" d="M310.7,312.4c-13.8,4.7-25.1,9.6-40,6c-4.3-1-13-2.8-12.2-8.5c14.4,6,33.4,8.2,47.8,0.1
		c20.9-11.8,18.4-42.3,2.2-57.2c-21.9-20.2-61.2-16.7-79.8,6c-15.2,18.6-15,51.6-0.5,70.6c14.8,19.4,41.1,22.2,63.6,18.4
		c7.4-1.2,20.3-4.4,24.4-11.3c3.1-5.3,1-15.7-1.1-20.9C314.4,313.4,313.1,311.5,310.7,312.4z M270.7,278.6c4.2-1.7,10.5,3.5,4.9,5.7
		C271.1,286.1,264.3,281.2,270.7,278.6z"/>
	<path class="st1" d="M324,284.7c5.5,0,15.8-2,20.8,0.3c1.9,0.9,0.8,2.7-0.5,3.6c-2.4,1.6-5.7,1.2-8.4,1.2c0,15.8-4,37.6,6.4,50.9
		c12.8,16.5,50.3,16.8,58.7-4.5c2-5.2,2.3-12.1,1.4-17.5c-0.3-1.6-0.4-4.5-1.9-5.6c-3.9-3-9-0.3-12.3-5.7c-3.7-6.1-2-15.8-2-22.6
		c3.7,0,11.5,1.5,14.5-0.9c2.2-1.8,2.9-5.5,3.5-8.1c1.8-7.6,3.3-23.9-3.6-29.6c-3.3-2.7-13.1-0.9-17.2-0.9v-23.7
		c-8.2-1.5-16-1.7-24.3-1.7c-3.2,0-8.3-0.2-11.2,1.4c-2.1,1.2-2.6,4.9-3.1,7.1c-1.4,5.3-3.2,10.9-5.6,15.8
		c-3,6.1-11.6,7.3-15.2,12.6C319.1,263.6,323.4,277,324,284.7z"/>
	<path class="st1" d="M106.6,406.5c0,3.4-1.1,9.2,0.8,12.2c2.1,3.2,6.9,5.3,10.4,6.4c10.2,3.2,25.1,2,31.7-7.4
		c12-16.8-4.8-37.5-20.1-43.8c-24.2-10-56.1-3.4-70.4,19.5c-13.2,21.2-11.1,56.1,7.2,73.9c21.8,21.2,64,19.2,84.1-3.3
		c3.9-4.4,2.9-9.7,1.5-15.1c-1.4-5.6-3.2-14.7-8.4-18.2c-2.4-1.6-6.1-0.5-8.7-0.3c-7.8,0.6-16.3,2.2-23.4,5.6
		c-4.7,2.3-2.9,4.4-4,8.6c-0.3,1-1.1,1.7-2.2,1.1c-2.6-1.5-2.9-6.7-3-9.3c-0.3-7.5-0.7-14.9-0.5-22.4
		C101.8,410.5,103,407,106.6,406.5z"/>
	<path class="st1" d="M290.4,399.5c-9.2-2.6,2.4-11.7,1.2-16.3c-1.9-7.8-16.3-6-21.9-6c-2.1,0-5-0.5-7,0.3c-2.7,1.2-3.5,5.8-4.3,8.4
		c-2.2,7.1-1.8,15.3,0.4,22.3c0.9,2.8,2.9,5.3,3.6,8.2c0.9,3.8,0.2,8.6,0.2,12.5V455c0,5.3-0.9,11.6,2.2,16.3
		c6.8,10.2,24.4,9.2,34.8,6.8c3.3-0.7,9.4-2,11.4-5c1.1-1.7,0.6-4.8,0.6-6.7v-15.8c0-6.7,1.8-16.3-0.2-22.7
		c-1.2-3.9-7.6-1.6-7.4-7.2c6.2,1.6,12.6,2.3,19,2.2c4.8-0.1,14.1-0.5,17.7-4c2.1-2,2.8-5.7,3.4-8.5c1.6-7.7,3.3-22.5-2-29.2
		c-3-3.7-9.9-4.5-14.2-5.2C311.3,373.3,293.1,381.3,290.4,399.5z"/>
	<path class="st1" d="M435.7,441.8c-13.4,4.6-24.4,9.3-38.9,5.9c-4.2-1-12.6-2.8-11.9-8.3c14,5.8,32.5,7.9,46.4,0.1
		c20.4-11.5,17.8-41.1,2.2-55.6c-21.2-19.6-59.4-16.2-77.5,5.8c-14.8,18.1-14.6,50.2-0.5,68.6c14.4,18.8,40,21.5,61.8,17.9
		c7.1-1.2,19.7-4.2,23.7-11c3.1-5.1,1-15.2-1-20.4C439.3,442.8,438.1,441,435.7,441.8z M396.9,409c4.1-1.7,10.2,3.4,4.8,5.5
		C397.2,416.3,390.6,411.6,396.9,409z"/>
	<path class="st1" d="M257.5,447.1c-1.6-3.9-5-6.1-5.7-10.7c-2.2-14.8,2.6-31.5-4.7-45.3c-11.4-21.7-42.8-23.2-63.9-18.6
		c-4.8,1.1-16.9,2.4-19.9,6.6c-4.3,6-1.3,18.9,0.9,25.2c0.5,1.4,1.2,3.4,3,3.5c2.9,0.1,7-2.7,9.9-3.5c5.8-1.6,12.3-2,18.2-1.6
		c3.9,0.3,10.4,0.9,10,6c-7-1.8-13.9-1.8-21-1.1c-26.3,2.5-38.8,32.8-25.2,54.8c9.9,16,35.6,19.8,51.7,11.6c-2.2-3.5-5-7,0-9.4
		c5.7,19.4,36.1,15.9,44.1,0.6C257.3,460.6,259.6,452.1,257.5,447.1z M208,438.5c-4.6,7.4-15-4.3-3.8-4.3l5,0
		C209,435.7,208.8,437.3,208,438.5z"/>
</g>
<g>
	<path class="st6" d="M202.2,23.7c-36.4,16.5-19.2,93.6,22.9,77.1C261.2,86.6,247.4,3.2,202.2,23.7z"/>
	<path id="Batata" onclick="document.getElementById('Batata').style.color = &quot;orange&quot;;" class="st6" d="M274.9,24
		c-32.8,17.4-15.2,97.7,26.1,75.4C333.3,81.9,318.9,0.6,274.9,24z"/>
	<path class="st6" d="M146.8,83.5c-26.6,17.5,11.2,75.8,40.9,56C214.8,121.5,174.2,65.4,146.8,83.5z"/>
	<path class="st6" d="M331.1,83.2c-30.5,13.7-30.8,75.4,9.8,55.4C369.3,124.5,369,66.2,331.1,83.2z"/>
	<path class="st7" d="M140.3,115.4l1.1,2.2L140.3,115.4z"/>
	<path class="st6" d="M245,118c-25.6,4.8-93.8,64.6-57.4,89.6c21.7,14.9,42.4-7.8,64-8.3c23.4-0.5,41.3,18.7,66.1,11.6
		c24.3-6.9,14.5-29.9,5.2-45C306.8,139.8,278.3,111.7,245,118z"/>
	<path class="st8" d="M280.3,124.2l2.2,1.1L280.3,124.2z"/>
	<path class="st9" d="M291.3,129.7l3.3,3.3L291.3,129.7z"/>
	<path class="st10" d="M354.1,457.1l3.3,3.3L354.1,457.1z"/>
	<path class="st6" d="M202.6,233.8c-19.5-17.1-49.5-18.4-73.7-12.8c-7.7,1.8-18.9,3.8-24.1,10.5c-4,5.1-1.5,18.6-1.5,24.9v56.2
		c0,7.3-1.9,17.9,2,24.4c7.6,12.9,28,12,40.6,9c3.9-0.9,10.2-2.3,12.7-5.7c2.4-3.3,0.9-11.3,0.9-15.2c-5.6-1-20.1-0.2-19.9-8.5
		c18.8,5.3,42.3,5.9,59-5.7C222.4,294.3,224.4,252.9,202.6,233.8z M157.7,280.7l-0.6-19.3C165.7,261.6,165.6,280.5,157.7,280.7z"/>
	<path class="st6" d="M310.5,311.7c-13.8,4.7-25.1,9.6-40,6c-4.3-1-13-2.8-12.2-8.5c14.4,6,33.4,8.2,47.8,0.1
		c20.9-11.8,18.4-42.3,2.2-57.2c-21.9-20.2-61.2-16.7-79.8,6c-15.2,18.6-15,51.6-0.5,70.6c14.8,19.4,41.1,22.2,63.6,18.4
		c7.4-1.2,20.3-4.4,24.4-11.3c3.1-5.3,1-15.7-1.1-20.9C314.2,312.7,312.9,310.8,310.5,311.7z M270.5,277.9c4.2-1.7,10.5,3.5,4.9,5.7
		C270.9,285.4,264.1,280.5,270.5,277.9z"/>
	<path class="st6" d="M323.8,284c5.5,0,15.8-2,20.8,0.3c1.9,0.9,0.8,2.7-0.5,3.6c-2.4,1.6-5.7,1.2-8.4,1.2c0,15.8-4,37.6,6.4,50.9
		c12.8,16.5,50.3,16.8,58.7-4.5c2-5.2,2.3-12.1,1.4-17.5c-0.3-1.6-0.4-4.5-1.9-5.6c-3.9-3-9-0.3-12.3-5.7c-3.7-6.1-2-15.8-2-22.6
		c3.7,0,11.5,1.5,14.5-0.9c2.2-1.8,2.9-5.5,3.5-8.1c1.8-7.6,3.3-23.9-3.6-29.6c-3.3-2.7-13.1-0.9-17.2-0.9v-23.7
		c-8.2-1.5-16-1.7-24.3-1.7c-3.2,0-8.3-0.2-11.2,1.4c-2.1,1.2-2.6,4.9-3.1,7.1c-1.4,5.3-3.2,10.9-5.6,15.8
		c-3,6.1-11.6,7.3-15.2,12.6C318.9,263,323.2,276.3,323.8,284z"/>
	<path class="st6" d="M106.4,405.8c0,3.4-1.1,9.2,0.8,12.2c2.1,3.2,6.9,5.3,10.4,6.4c10.2,3.2,25.1,2,31.7-7.4
		c12-16.8-4.8-37.5-20.1-43.8c-24.2-10-56.1-3.4-70.4,19.5c-13.2,21.2-11.1,56.1,7.2,73.9c21.8,21.2,64,19.2,84.1-3.3
		c3.9-4.4,2.9-9.7,1.5-15.1c-1.4-5.6-3.2-14.7-8.4-18.2c-2.4-1.6-6.1-0.5-8.7-0.3c-7.8,0.6-16.3,2.2-23.4,5.6
		c-4.7,2.3-2.9,4.4-4,8.6c-0.3,1-1.1,1.7-2.2,1.1c-2.6-1.5-2.9-6.7-3-9.3c-0.3-7.5-0.7-14.9-0.5-22.4
		C101.6,409.8,102.8,406.4,106.4,405.8z"/>
	<path class="st6" d="M290.2,398.8c-9.2-2.6,2.4-11.7,1.2-16.3c-1.9-7.8-16.3-6-21.9-6c-2.1,0-5-0.5-7,0.3c-2.7,1.2-3.5,5.8-4.3,8.4
		c-2.2,7.1-1.8,15.3,0.4,22.3c0.9,2.8,2.9,5.3,3.6,8.2c0.9,3.8,0.2,8.6,0.2,12.5v26.1c0,5.3-0.9,11.6,2.2,16.3
		c6.8,10.2,24.4,9.2,34.8,6.8c3.3-0.7,9.4-2,11.4-5c1.1-1.7,0.6-4.8,0.6-6.7V450c0-6.7,1.8-16.3-0.2-22.7c-1.2-3.9-7.6-1.6-7.4-7.2
		c6.2,1.6,12.6,2.3,19,2.2c4.8-0.1,14.1-0.5,17.7-4c2.1-2,2.8-5.7,3.4-8.5c1.6-7.7,3.3-22.5-2-29.2c-3-3.7-9.9-4.5-14.2-5.2
		C311.1,372.6,292.9,380.6,290.2,398.8z"/>
	<path class="st6" d="M435.5,441.1c-13.4,4.6-24.4,9.3-38.9,5.9c-4.2-1-12.6-2.8-11.9-8.3c14,5.8,32.5,7.9,46.4,0.1
		c20.4-11.5,17.8-41.1,2.2-55.6c-21.2-19.6-59.4-16.2-77.5,5.8c-14.8,18.1-14.6,50.2-0.5,68.6c14.4,18.8,40,21.5,61.8,17.9
		c7.1-1.2,19.7-4.2,23.7-11c3.1-5.1,1-15.2-1-20.4C439.1,442.1,437.9,440.3,435.5,441.1z M396.7,408.3c4.1-1.7,10.2,3.4,4.8,5.5
		C397,415.6,390.4,410.9,396.7,408.3z"/>
	<path class="st6" d="M257.3,446.4c-1.6-3.9-5-6.1-5.7-10.7c-2.2-14.8,2.6-31.5-4.7-45.3c-11.4-21.7-42.8-23.2-63.9-18.6
		c-4.8,1.1-16.9,2.4-19.9,6.6c-4.3,6-1.3,18.9,0.9,25.2c0.5,1.4,1.2,3.4,3,3.5c2.9,0.1,7-2.7,9.9-3.5c5.8-1.6,12.3-2,18.2-1.6
		c3.9,0.3,10.4,0.9,10,6c-7-1.8-13.9-1.8-21-1.1c-26.3,2.5-38.8,32.8-25.2,54.8c9.9,16,35.6,19.8,51.7,11.6c-2.2-3.5-5-7,0-9.4
		c5.7,19.4,36.1,15.9,44.1,0.6C257.1,459.9,259.4,451.4,257.3,446.4z M207.8,437.9c-4.6,7.4-15-4.3-3.8-4.3l5,0
		C208.8,435,208.7,436.6,207.8,437.9z"/>
</g>
</svg>
